<?xml version="1.0" encoding="UTF-8" standalone="no"?>
<svg
   xmlns:x="adobe:ns:meta/"
   xmlns:dc="http://purl.org/dc/elements/1.1/"
   xmlns:cc="http://creativecommons.org/ns#"
   xmlns:rdf="http://www.w3.org/1999/02/22-rdf-syntax-ns#"
   xmlns:svg="http://www.w3.org/2000/svg"
   xmlns="http://www.w3.org/2000/svg"
   width="32.094"
   height="32"
   viewBox="0 0 32.094 32"
   version="1.1"
   id="svg9">
  <metadata
     id="metadata2">
<?xpacket begin="ÿ" id="W5M0MpCehiHzreSzNTczkc9d"?>    <x:xmpmeta
       x:xmptk="Adobe XMP Core 5.6-c138 79.159824, 2016/09/14-01:09:01        ">
      <metadata>
        <rdf:RDF>
          <rdf:Description
             rdf:about="" />
          <cc:Work
             rdf:about="">
            <dc:format>image/svg+xml</dc:format>
            <dc:type
               rdf:resource="http://purl.org/dc/dcmitype/StillImage" />
            <dc:title></dc:title>
          </cc:Work>
        </rdf:RDF>
      </metadata>
    </x:xmpmeta>
<?xpacket end="w"?>  </metadata>
  <defs
     id="defs6">
    <style
       id="style4">
      .cls-1 {
        fill-rule: evenodd;
      }
    </style>
  </defs>
  <g
     id="g20">
    <g
       id="g14">
      <g
         id="g3692">
        <path
           transform="translate(-888 -1011)"
           d="M920,1043H888s0-8.03,6-8.03,7-1.31,7-1.72v-3.22h6v3.22c0,0.33.937,1.72,6.969,1.72C920.093,1034.97,920,1043,920,1043Zm-3-1.97H891s0-4,4-4c5.256,0,8-1.51,8-2.82V1032h2v2.21c0,1.48,2.717,2.82,8,2.82C917,1037.03,917,1041.03,917,1041.03ZM904,1011c4.418,0,8,4.7,8,10.5s-3.582,10.5-8,10.5-8-4.7-8-10.5S899.582,1011,904,1011Zm-0.016,2.03c3.3,0,5.985,3.81,5.985,8.5s-2.68,8.5-5.985,8.5-5.984-3.8-5.984-8.5S900.679,1013.03,903.984,1013.03Z"
           class="cls-1"
           id="user" />
        <path
           id="path3683"
           d="m 19.116704,20.006077 c 0,0.548433 -1.403419,0.993026 -3.134624,0.993026 -1.731205,0 -3.185471,-0.49544 -3.18547,-1.043873 -10e-7,-0.137109 -0.13051,-0.455227 0.0096,-0.575355 0.140082,-0.120129 -0.02552,-0.432097 0.24328,-0.523008 0.268797,-0.09091 0.955042,0.123983 1.341186,0.07453 0.386144,-0.04946 1.048458,0.02657 1.540582,0.03081 0.432785,0.0037 1.064738,0.0028 1.448394,-0.0094 0.379785,-0.01208 1.13065,-0.170767 1.420638,-0.07549 0.289988,0.09528 0.288589,0.512309 0.451981,0.634716 0.163393,0.122407 -0.135542,0.356967 -0.135542,0.494075 z"
           style="stroke-width:0.99433994" />
      </g>
    </g>
  </g>
</svg>
